<mxfile host="app.diagrams.net" modified="2023-03-08T11:46:37.572Z" agent="5.0 (Windows NT 10.0; Win64; x64) AppleWebKit/537.36 (KHTML, like Gecko) Chrome/109.0.0.0 Safari/537.36 Edg/109.0.1518.70" etag="_HfVAamLnzu6I2G_21Sx" version="21.0.2" type="github">
  <diagram name="第 1 页" id="0wGa54-huHRx0aqttyM5">
    <mxGraphModel dx="1434" dy="796" grid="1" gridSize="10" guides="1" tooltips="1" connect="1" arrows="1" fold="1" page="1" pageScale="1" pageWidth="827" pageHeight="1169" math="0" shadow="0">
      <root>
        <mxCell id="0" />
        <mxCell id="1" parent="0" />
        <mxCell id="mDcNVVgNKr0E9x6EJMyh-1" value="" style="endArrow=none;html=1;rounded=0;" edge="1" parent="1">
          <mxGeometry width="50" height="50" relative="1" as="geometry">
            <mxPoint x="130" y="440" as="sourcePoint" />
            <mxPoint x="890" y="440" as="targetPoint" />
          </mxGeometry>
        </mxCell>
        <mxCell id="mDcNVVgNKr0E9x6EJMyh-2" value="" style="endArrow=classic;html=1;rounded=0;" edge="1" parent="1">
          <mxGeometry width="50" height="50" relative="1" as="geometry">
            <mxPoint x="130" y="520" as="sourcePoint" />
            <mxPoint x="130" y="440" as="targetPoint" />
          </mxGeometry>
        </mxCell>
        <mxCell id="mDcNVVgNKr0E9x6EJMyh-3" value="1993.10.06&lt;br&gt;出生" style="rounded=0;whiteSpace=wrap;html=1;" vertex="1" parent="1">
          <mxGeometry x="70" y="520" width="120" height="60" as="geometry" />
        </mxCell>
        <mxCell id="mDcNVVgNKr0E9x6EJMyh-4" value="" style="endArrow=classic;html=1;rounded=0;" edge="1" parent="1">
          <mxGeometry width="50" height="50" relative="1" as="geometry">
            <mxPoint x="887" y="520" as="sourcePoint" />
            <mxPoint x="887" y="440" as="targetPoint" />
          </mxGeometry>
        </mxCell>
        <mxCell id="mDcNVVgNKr0E9x6EJMyh-5" value="现在" style="rounded=0;whiteSpace=wrap;html=1;" vertex="1" parent="1">
          <mxGeometry x="827" y="520" width="120" height="60" as="geometry" />
        </mxCell>
        <mxCell id="mDcNVVgNKr0E9x6EJMyh-10" value="" style="edgeStyle=orthogonalEdgeStyle;rounded=0;orthogonalLoop=1;jettySize=auto;html=1;" edge="1" parent="1" source="mDcNVVgNKr0E9x6EJMyh-8" target="mDcNVVgNKr0E9x6EJMyh-9">
          <mxGeometry relative="1" as="geometry" />
        </mxCell>
        <mxCell id="mDcNVVgNKr0E9x6EJMyh-8" value="" style="shape=waypoint;sketch=0;fillStyle=solid;size=6;pointerEvents=1;points=[];fillColor=none;resizable=0;rotatable=0;perimeter=centerPerimeter;snapToPoint=1;" vertex="1" parent="1">
          <mxGeometry x="160" y="330" width="20" height="20" as="geometry" />
        </mxCell>
        <mxCell id="mDcNVVgNKr0E9x6EJMyh-9" value="" style="shape=waypoint;sketch=0;fillStyle=solid;size=6;pointerEvents=1;points=[];fillColor=none;resizable=0;rotatable=0;perimeter=centerPerimeter;snapToPoint=1;" vertex="1" parent="1">
          <mxGeometry x="270" y="330" width="20" height="20" as="geometry" />
        </mxCell>
        <mxCell id="mDcNVVgNKr0E9x6EJMyh-17" value="2009.9&lt;br&gt;入学县一中" style="rounded=0;whiteSpace=wrap;html=1;" vertex="1" parent="1">
          <mxGeometry x="230" y="250" width="120" height="60" as="geometry" />
        </mxCell>
      </root>
    </mxGraphModel>
  </diagram>
</mxfile>
